name Walk6.mot
datacolumns 19
datarows 30
range 4.39500000 4.54000000
endheader

                time	   L_ground_force_vx	   L_ground_force_vy	   L_ground_force_vz	   L_ground_force_px	   L_ground_force_py	   L_ground_force_pz	   R_ground_force_vx	   R_ground_force_vy	   R_ground_force_vz	   R_ground_force_px	   R_ground_force_py	   R_ground_force_pz	   L_ground_torque_x	   L_ground_torque_y	   L_ground_torque_z	   R_ground_torque_x	   R_ground_torque_y	   R_ground_torque_z	
          4.39500000	          0.11686835	          0.33780824	          0.00877878	          0.00000912	          0.00000000	          0.00002345	         -3.09557925	        876.73204940	        -72.93057589	          0.16741231	          0.00000000	          0.11717987	          0.00000000	          0.00017610	          0.00000000	          0.00000000	         12.14802362	          0.00000000	
          4.40000000	          0.10181439	          0.30042395	          0.00962980	         -0.00017702	          0.00000000	         -0.00005650	         -1.56598664	        876.61975601	        -71.87645210	          0.16852142	          0.00000000	          0.11724476	          0.00000000	          0.00021612	          0.00000000	          0.00000000	         11.83524803	          0.00000000	
          4.40500000	          0.08410829	          0.25269023	          0.00941394	         -0.00028239	          0.00000000	         -0.00010330	         -0.07807867	        877.11975657	        -70.79097047	          0.16964676	          0.00000000	          0.11730662	          0.00000000	          0.00022469	          0.00000000	          0.00000000	         11.53168391	          0.00000000	
          4.41000000	          0.06610176	          0.20209478	          0.00853099	         -0.00032763	          0.00000000	         -0.00012514	          1.38214695	        878.27308524	        -69.75123518	          0.17079094	          0.00000000	          0.11736999	          0.00000000	          0.00021242	          0.00000000	          0.00000000	         11.23840634	          0.00000000	
          4.41500000	          0.04932667	          0.15366564	          0.00729007	         -0.00033073	          0.00000000	         -0.00012925	          2.82549679	        880.08391667	        -68.82954560	          0.17195842	          0.00000000	          0.11743940	          0.00000000	          0.00018775	          0.00000000	          0.00000000	         10.95555415	          0.00000000	
          4.42000000	          0.03466799	          0.11045588	          0.00591773	         -0.00030656	          0.00000000	         -0.00012166	          4.25987703	        882.52347096	        -68.08825563	          0.17315576	          0.00000000	          0.11751917	          0.00000000	          0.00015708	          0.00000000	          0.00000000	         10.68232393	          0.00000000	
          4.42500000	          0.02252584	          0.07401057	          0.00456966	         -0.00026681	          0.00000000	         -0.00010718	          5.69109160	        885.53135722	        -67.57547657	          0.17438896	          0.00000000	          0.11761367	          0.00000000	          0.00012499	          0.00000000	          0.00000000	         10.41705488	          0.00000000	
          4.43000000	          0.01295780	          0.04478556	          0.00334376	         -0.00022022	          0.00000000	         -0.00008941	          7.12289996	        889.01930116	        -67.32248949	          0.17566261	          0.00000000	          0.11772693	          0.00000000	          0.00009452	          0.00000000	          0.00000000	         10.15719441	          0.00000000	
          4.43500000	          0.00579719	          0.02250213	          0.00229317	         -0.00017293	          0.00000000	         -0.00007094	          8.55709373	        892.87975535	        -67.34335852	          0.17697949	          0.00000000	          0.11786217	          0.00000000	          0.00006751	          0.00000000	          0.00000000	          9.89951452	          0.00000000	
          4.44000000	          0.00074674	          0.00643255	          0.00143808	         -0.00012893	          0.00000000	         -0.00005349	          9.99275332	        896.99850400	        -67.63643007	          0.17834058	          0.00000000	          0.11802201	          0.00000000	          0.00004485	          0.00000000	          0.00000000	          9.64100408	          0.00000000	
          4.44500000	         -0.00255107	         -0.00438130	          0.00077599	         -0.00009051	          0.00000000	         -0.00003807	         11.42576444	        901.26141672	        -68.18624171	          0.17974484	          0.00000000	          0.11820744	          0.00000000	          0.00002677	          0.00000000	          0.00000000	          9.37955341	          0.00000000	
          4.45000000	         -0.00446413	         -0.01096950	          0.00029004	         -0.00005872	          0.00000000	         -0.00002517	         12.84973424	        905.56034190	        -68.96538625	          0.18118986	          0.00000000	          0.11841751	          0.00000000	          0.00001306	          0.00000000	          0.00000000	          9.11388246	          0.00000000	
          4.45500000	         -0.00533789	         -0.01432683	         -0.00004453	         -0.00003368	          0.00000000	         -0.00001491	         14.25658315	        909.79909681	        -69.93700784	          0.18267288	          0.00000000	          0.11865059	          0.00000000	          0.00000323	          0.00000000	          0.00000000	          8.84296681	          0.00000000	
          4.46000000	         -0.00547604	         -0.01534674	         -0.00025557	         -0.00001497	          0.00000000	         -0.00000715	         15.63676326	        913.89858035	        -71.05830230	          0.18419130	          0.00000000	          0.11890481	          0.00000000	         -0.00000332	          0.00000000	          0.00000000	          8.56606285	          0.00000000	
          4.46500000	         -0.00513155	         -0.01478705	         -0.00037068	         -0.00000178	          0.00000000	         -0.00000160	         16.97985713	        917.80305474	        -72.28283812	          0.18574344	          0.00000000	          0.11917871	          0.00000000	         -0.00000726	          0.00000000	          0.00000000	          8.28284063	          0.00000000	
          4.47000000	         -0.00450479	         -0.01325866	         -0.00041519	          0.00000682	          0.00000000	          0.00000208	         18.27474436	        921.47750637	        -73.56299016	          0.18732839	          0.00000000	          0.11947019	          0.00000000	         -0.00000922	          0.00000000	          0.00000000	          7.99333405	          0.00000000	
          4.47500000	         -0.00374659	         -0.01122992	         -0.00041090	          0.00001179	          0.00000000	          0.00000427	         19.50952965	        924.90254090	        -74.85278831	          0.18894605	          0.00000000	          0.11977677	          0.00000000	         -0.00000974	          0.00000000	          0.00000000	          7.69793898	          0.00000000	
          4.48000000	         -0.00296406	         -0.00904079	         -0.00037564	          0.00001405	          0.00000000	          0.00000534	         20.67239366	        928.07313672	        -76.11104429	          0.19059784	          0.00000000	          0.12009616	          0.00000000	         -0.00000931	          0.00000000	          0.00000000	          7.39765418	          0.00000000	
          4.48500000	         -0.00222782	         -0.00692192	         -0.00032333	          0.00001438	          0.00000000	          0.00000561	         21.75246010	        930.99370994	        -77.30380440	          0.19228555	          0.00000000	          0.12042585	          0.00000000	         -0.00000829	          0.00000000	          0.00000000	          7.09411140	          0.00000000	
          4.49000000	         -0.00157948	         -0.00501569	         -0.00026421	          0.00001346	          0.00000000	          0.00000533	         22.74075746	        933.67287578	        -78.40573733	          0.19401231	          0.00000000	          0.12076306	          0.00000000	         -0.00000699	          0.00000000	          0.00000000	          6.78932353	          0.00000000	
          4.49500000	         -0.00103880	         -0.00339658	         -0.00020540	          0.00001181	          0.00000000	          0.00000474	         23.63075248	        936.12228991	        -79.40064471	          0.19578294	          0.00000000	          0.12110498	          0.00000000	         -0.00000560	          0.00000000	          0.00000000	          6.48507070	          0.00000000	
          4.50000000	         -0.00060992	         -0.00208965	         -0.00015144	          0.00000981	          0.00000000	          0.00000398	         24.41830320	        938.35566618	        -80.28209688	          0.19760293	          0.00000000	          0.12144913	          0.00000000	         -0.00000426	          0.00000000	          0.00000000	          6.18293356	          0.00000000	
          4.50500000	         -0.00028665	         -0.00108628	         -0.00010486	          0.00000776	          0.00000000	          0.00000318	         25.10273401	        940.38292798	        -81.05257166	          0.19947643	          0.00000000	          0.12179313	          0.00000000	         -0.00000307	          0.00000000	          0.00000000	          5.88431708	          0.00000000	
          4.51000000	         -0.00005667	         -0.00035692	         -0.00006670	          0.00000582	          0.00000000	          0.00000241	         25.68832219	        942.20737727	        -81.72115674	          0.20140489	          0.00000000	          0.12213478	          0.00000000	         -0.00000206	          0.00000000	          0.00000000	          5.59036358	          0.00000000	
          4.51500000	          0.00009530	          0.00013903	         -0.00003695	          0.00000412	          0.00000000	          0.00000173	         26.18440867	        943.82481090	        -82.30125668	          0.20338677	          0.00000000	          0.12247183	          0.00000000	         -0.00000125	          0.00000000	          0.00000000	          5.30163909	          0.00000000	
          4.52000000	          0.00018521	          0.00044608	         -0.00001495	          0.00000271	          0.00000000	          0.00000116	         26.60447209	        945.22681039	        -82.80898434	          0.20541805	          0.00000000	          0.12280231	          0.00000000	         -0.00000063	          0.00000000	          0.00000000	          5.01797648	          0.00000000	
          4.52500000	          0.00022822	          0.00060770	          0.00000034	          0.00000159	          0.00000000	          0.00000070	         26.96539218	        946.40638051	        -83.26146602	          0.20749391	          0.00000000	          0.12312494	          0.00000000	         -0.00000019	          0.00000000	          0.00000000	          4.73863486	          0.00000000	
          4.53000000	          0.00023776	          0.00066329	          0.00001012	          0.00000074	          0.00000000	          0.00000035	         27.28620768	        947.36040841	        -83.67523029	          0.20960893	          0.00000000	          0.12343904	          0.00000000	          0.00000011	          0.00000000	          0.00000000	          4.46234264	          0.00000000	
          4.53500000	          0.00022507	          0.00064648	          0.00001559	          0.00000014	          0.00000000	          0.00000010	         27.58729621	        948.09261050	        -84.06413635	          0.21175726	          0.00000000	          0.12374493	          0.00000000	          0.00000030	          0.00000000	          0.00000000	          4.18735968	          0.00000000	
          4.54000000	          0.00019913	          0.00058457	          0.00001786	         -0.00000026	          0.00000000	         -0.00000007	         27.88948455	        948.61588226	        -84.43761983	          0.21393313	          0.00000000	          0.12404387	          0.00000000	          0.00000039	          0.00000000	          0.00000000	          3.91197703	          0.00000000	
